<svg width="388" height="417" viewBox="0 0 388 417" fill="none" xmlns="http://www.w3.org/2000/svg">
<rect width="388" height="417" fill="#E89BB0"/>
<path d="M91.5484 138.52C91.5484 132.84 95.3884 129 101.068 129C106.908 129 110.748 132.84 110.748 138.52C110.748 143.96 110.748 149.8 110.748 153.8H112.348C112.348 149.8 112.348 143.96 112.348 138.52C112.348 132.84 116.188 129 121.868 129C127.708 129 131.548 132.84 131.548 138.52C131.548 139.24 131.548 140.36 131.548 141.08C131.548 151.96 126.668 158.6 119.068 158.6C118.028 158.6 111.788 158.6 110.748 158.6C110.748 159.48 110.748 159.72 110.748 160.2C111.308 160.2 114.748 160.2 119.068 160.2C126.828 160.2 131.548 165.96 131.548 175.4C131.548 181.16 127.708 185 121.948 185C116.188 185 112.348 181.16 112.348 175.32C112.348 172.44 112.348 167.88 112.348 165H110.748C110.748 166.92 110.748 171.16 110.748 175.48C110.748 181.16 106.908 185 101.228 185C95.3884 185 91.5484 181.16 91.5484 175.48C91.5484 163.16 91.5484 150.84 91.5484 138.52ZM174.752 138.52C174.752 150.84 174.752 163.16 174.752 175.48C174.752 181.16 170.992 185 165.072 185C159.392 185 155.552 181.16 155.552 175.48C155.552 173.4 155.552 162.52 155.552 160.36H153.952C153.952 162.52 153.952 173.4 153.952 175.48C153.952 181.16 150.192 185 144.272 185C138.592 185 134.752 181.16 134.752 175.48C134.752 163.16 134.752 150.84 134.752 138.52C134.752 132.84 138.512 129 144.432 129C150.112 129 153.952 132.84 153.952 138.52V154.76H155.552V138.52C155.552 132.84 159.312 129 165.232 129C170.912 129 174.752 132.84 174.752 138.52ZM211.757 185H211.597C206.637 185 203.277 181.64 203.277 176.68C203.277 172.12 203.277 166.04 203.277 158.6C202.877 158.6 202.237 158.6 201.917 158.6C201.917 163.4 201.837 168.76 201.757 174.04C201.597 180.68 197.197 185 190.477 185C183.917 185 179.517 180.6 179.517 174.04V137.32C179.517 132.36 182.877 129 188.077 129C193.037 129 196.397 132.36 196.397 137.32C196.397 143.88 196.397 150.52 196.397 157C196.557 157 197.197 157 197.677 157C197.677 151.32 197.677 145.72 197.677 140.12C197.677 133.4 202.077 129 208.957 129C215.677 129 220.077 133.4 220.077 140.12C220.077 152.28 220.077 164.52 220.077 176.68C220.077 181.64 216.717 185 211.757 185ZM244.108 175C244.108 181 240.268 185 234.588 185C228.748 185 224.908 181 224.908 175C224.908 163.08 224.908 151.08 224.908 139.08C224.908 133.08 228.748 129 234.508 129C239.708 129 244.828 129 249.468 129C254.908 129 258.508 132.84 258.508 138.52C258.508 144.44 254.908 148.28 249.468 148.28C247.228 148.28 245.228 148.28 244.108 148.28C244.108 157.56 244.108 166.04 244.108 175ZM280.425 175.88C280.425 173.64 280.425 171.24 280.425 169.16H278.825C278.825 171.4 278.825 173.96 278.825 175.88C278.825 181.32 275.065 185 269.145 185C263.465 185 259.785 181.32 260.185 175.88C260.745 167.32 261.785 154.28 262.505 144.04C263.145 135.08 269.945 129 279.785 129C289.225 129 296.105 135.08 296.745 144.04C297.465 154.28 298.345 167.32 298.985 175.88C299.385 181.32 295.865 185 289.945 185C284.265 185 280.425 181.32 280.425 175.88ZM278.825 148.2V163.56H280.425C280.425 158.04 280.425 151.96 280.425 148.2H278.825Z" fill="white"/>
<path d="M55.7953 271.88V270.2C55.7953 264.12 59.8753 260.04 65.9553 260.04C71.4753 260.04 74.9953 263.64 74.9953 268.92V275H75.7953V258.2H67.3153C60.4353 258.2 55.7953 253.56 55.7953 246.68C55.7953 239.56 60.4353 235 67.3153 235H84.6753C90.3553 235 94.1953 238.84 94.1953 244.52C94.1953 250.44 90.3553 254.2 84.6753 254.2H78.1953V255.8H80.3553C89.1553 255.8 94.9953 261.64 94.9953 270.44C94.9953 283.32 87.3153 291 75.7953 291C63.4753 291 55.7953 283.4 55.7953 271.88ZM115.897 235H117.257C127.897 235 134.937 241.56 134.937 251.4V274.6C134.937 284.44 127.897 291 115.897 291C105.257 291 98.2172 284.44 98.2172 274.6V251.4C98.2172 241.56 105.257 235 115.897 235ZM117.417 254.36H115.737V271.8H117.417V254.36ZM155.819 235H157.179C167.819 235 174.859 241.56 174.859 251.4V274.6C174.859 284.44 167.819 291 155.819 291C145.179 291 138.139 284.44 138.139 274.6V251.4C138.139 241.56 145.179 235 155.819 235ZM157.339 254.36H155.659V271.8H157.339V254.36ZM191.673 244.92C191.673 239 195.673 235 201.593 235H214.953C224.953 235 231.673 241.72 231.673 251.72C231.673 262.04 224.953 268.76 214.953 268.76C213.273 268.76 211.833 268.76 210.873 268.76C210.873 273.24 210.873 277.32 210.873 281.48C210.873 287.16 207.033 291 201.353 291C195.513 291 191.673 287.16 191.673 281.48C191.673 269.32 191.673 257.08 191.673 244.92ZM212.473 254.2H210.873V263.16H212.473V254.2ZM234.637 282.6C234.637 277.96 237.757 274.2 241.917 274.2C243.277 274.2 246.317 274.2 246.797 274.2C246.797 273.72 246.797 272.76 246.797 272.6C240.717 272.6 237.517 269.64 236.797 265.88C235.197 257.32 233.837 251.24 233.357 244.52C232.957 238.84 236.557 235 242.237 235C248.157 235 251.917 238.84 251.917 244.52C251.917 252.44 251.917 263.48 251.917 271.8H253.517C253.517 265.08 253.517 253.8 253.517 244.52C253.517 238.84 257.357 235 263.037 235C268.957 235 272.477 238.76 272.077 244.44C271.517 252.84 270.557 265.32 269.837 275.24C269.197 283.64 262.717 291 253.997 291C248.317 291 247.677 291 241.997 291C237.837 291 234.637 287.4 234.637 282.6ZM278.08 281.08C278.08 268.92 278.08 256.68 278.08 244.52C278.08 238.84 281.92 235 287.76 235C288.24 235 288.72 235 289.36 235.08C295.92 235.08 299.92 235.08 306.96 235.08C312.64 235.08 316.48 238.92 316.48 244.76C316.48 250.44 312.64 254.28 306.96 254.28C303.12 254.28 300.24 254.28 297.28 254.2C297.28 255.16 297.28 256.2 297.28 257.24C298.24 257.24 299.68 257.24 301.36 257.24C311.36 257.24 318.08 263.96 318.08 274.28C318.08 284.28 311.36 291 301.36 291H288C282.08 291 278.08 287 278.08 281.08ZM297.28 274.84H298.88V262.84H297.28V274.84ZM319.683 284.52C319.683 280.44 322.323 277.88 326.403 277.88C330.403 277.88 333.043 280.44 333.043 284.52C333.043 288.6 330.403 291.16 326.403 291.16C322.323 291.16 319.683 288.6 319.683 284.52Z" fill="white"/>
</svg>
