<svg width="388" height="417" viewBox="0 0 388 417" fill="none" xmlns="http://www.w3.org/2000/svg">
<rect width="388" height="417" fill="#E89BB0"/>
<path d="M47.4078 138.92C47.4078 133 51.4078 129 57.3278 129H70.6878C80.6878 129 87.4078 135.72 87.4078 145.72C87.4078 156.04 80.6878 162.76 70.6878 162.76C69.0078 162.76 67.5678 162.76 66.6078 162.76C66.6078 167.24 66.6078 171.32 66.6078 175.48C66.6078 181.16 62.7678 185 57.0878 185C51.2478 185 47.4078 181.16 47.4078 175.48C47.4078 163.32 47.4078 151.08 47.4078 138.92ZM68.2078 148.2H66.6078V157.16H68.2078V148.2ZM109.811 165.72C110.931 165.72 112.931 165.72 115.171 165.72C120.611 165.72 124.211 169.56 124.211 175.48C124.211 181.16 120.611 185 115.171 185C110.531 185 105.411 185 100.211 185C94.3709 185 90.6109 180.92 90.6109 175V139C90.6109 133.08 94.3709 129 100.211 129C105.411 129 109.731 129 114.371 129C119.811 129 123.411 132.84 123.411 138.52C123.411 144.44 119.811 148.28 114.371 148.28C112.131 148.28 110.931 148.28 109.811 148.28C109.811 149.88 109.811 151.48 109.811 152.92C112.131 152.92 113.651 152.92 115.491 153C117.811 153 119.411 154.68 119.491 157.08C119.491 159.4 117.891 161 115.571 161C114.451 161 113.891 161 109.811 160.84C109.811 162.44 109.811 164.12 109.811 165.72ZM137.248 153C131.568 153 127.808 149.4 127.808 144.04C127.808 135 135.728 129 147.568 129C159.488 129 167.488 135 167.488 144.04C167.488 152.44 161.888 157.32 153.328 157.32C151.008 157.32 148.768 157.32 148.368 157.32V158.92C148.848 158.92 151.888 158.92 154.848 158.92C162.368 158.92 168.608 164.84 167.488 172.92C166.528 180.12 159.568 185 147.568 185C135.568 185 128.368 179.16 127.568 173C126.768 165.8 131.328 162.68 137.088 162.68C143.008 162.68 146.768 164.2 146.768 166.52H148.288V161.88H134.448C132.128 161.88 130.528 160.36 130.528 158.2C130.528 155.96 132.128 154.52 134.448 154.52C139.648 154.52 147.808 154.52 148.288 154.52C148.288 153.56 148.288 148.2 148.288 148.2H146.768C146.768 151.08 142.928 153 137.248 153ZM204.726 185H204.566C199.606 185 196.246 181.64 196.246 176.68C196.246 172.12 196.246 166.04 196.246 158.6C195.846 158.6 195.206 158.6 194.886 158.6C194.886 163.4 194.806 168.76 194.726 174.04C194.566 180.68 190.166 185 183.446 185C176.886 185 172.486 180.6 172.486 174.04V137.32C172.486 132.36 175.846 129 181.046 129C186.006 129 189.366 132.36 189.366 137.32C189.366 143.88 189.366 150.52 189.366 157C189.526 157 190.166 157 190.646 157C190.646 151.32 190.646 145.72 190.646 140.12C190.646 133.4 195.046 129 201.926 129C208.646 129 213.046 133.4 213.046 140.12C213.046 152.28 213.046 164.52 213.046 176.68C213.046 181.64 209.686 185 204.726 185ZM257.877 138.52C257.877 150.84 257.877 163.16 257.877 175.48C257.877 181.16 254.117 185 248.197 185C242.517 185 238.677 181.16 238.677 175.48C238.677 173.4 238.677 162.52 238.677 160.36H237.077C237.077 162.52 237.077 173.4 237.077 175.48C237.077 181.16 233.317 185 227.397 185C221.717 185 217.877 181.16 217.877 175.48C217.877 163.16 217.877 150.84 217.877 138.52C217.877 132.84 221.637 129 227.557 129C233.237 129 237.077 132.84 237.077 138.52V154.76H238.677V138.52C238.677 132.84 242.437 129 248.357 129C254.037 129 257.877 132.84 257.877 138.52ZM262.642 138.52C262.642 132.84 266.482 129 272.162 129C278.002 129 281.842 132.84 281.842 138.52C281.842 143.96 281.842 149.8 281.842 153.8H283.442C283.442 149.8 283.442 143.96 283.442 138.52C283.442 132.84 287.282 129 292.962 129C298.802 129 302.642 132.84 302.642 138.52C302.642 139.24 302.642 140.36 302.642 141.08C302.642 151.96 297.762 158.6 290.162 158.6C289.122 158.6 282.882 158.6 281.842 158.6C281.842 159.48 281.842 159.72 281.842 160.2C282.402 160.2 285.842 160.2 290.162 160.2C297.922 160.2 302.642 165.96 302.642 175.4C302.642 181.16 298.802 185 293.042 185C287.282 185 283.442 181.16 283.442 175.32C283.442 172.44 283.442 167.88 283.442 165H281.842C281.842 166.92 281.842 171.16 281.842 175.48C281.842 181.16 278.002 185 272.322 185C266.482 185 262.642 181.16 262.642 175.48C262.642 163.16 262.642 150.84 262.642 138.52ZM324.565 175.88C324.565 173.64 324.565 171.24 324.565 169.16H322.965C322.965 171.4 322.965 173.96 322.965 175.88C322.965 181.32 319.205 185 313.285 185C307.605 185 303.925 181.32 304.325 175.88C304.885 167.32 305.925 154.28 306.645 144.04C307.285 135.08 314.085 129 323.925 129C333.365 129 340.245 135.08 340.885 144.04C341.605 154.28 342.485 167.32 343.125 175.88C343.525 181.32 340.005 185 334.085 185C328.405 185 324.565 181.32 324.565 175.88ZM322.965 148.2V163.56H324.565C324.565 158.04 324.565 151.96 324.565 148.2H322.965Z" fill="white"/>
<path d="M55.7563 255.8V254.12C55.7563 242.68 63.4363 235 75.7563 235C87.2763 235 94.9563 242.68 94.9563 255.56C94.9563 264.36 89.1163 270.2 80.3163 270.2H78.1563V271.8H85.5163C91.1963 271.8 95.0363 275.64 95.0363 281.48C95.0363 287.16 91.1963 291 85.5163 291H67.2763C60.3163 291 55.7563 286.44 55.7563 279.32C55.7563 272.36 60.3163 267.8 67.2763 267.8H75.7563V251H74.9563V257.08C74.9563 262.44 71.4363 265.96 65.9162 265.96C59.8363 265.96 55.7563 261.88 55.7563 255.8ZM115.936 235H117.296C127.936 235 134.976 241.56 134.976 251.4V274.6C134.976 284.44 127.936 291 115.936 291C105.296 291 98.2563 284.44 98.2563 274.6V251.4C98.2563 241.56 105.296 235 115.936 235ZM117.456 254.36H115.776V271.8H117.456V254.36ZM155.858 235H157.218C167.858 235 174.898 241.56 174.898 251.4V274.6C174.898 284.44 167.858 291 155.858 291C145.218 291 138.178 284.44 138.178 274.6V251.4C138.178 241.56 145.218 235 155.858 235ZM157.378 254.36H155.698V271.8H157.378V254.36ZM191.713 244.92C191.713 239 195.713 235 201.633 235H214.993C224.993 235 231.713 241.72 231.713 251.72C231.713 262.04 224.993 268.76 214.993 268.76C213.313 268.76 211.873 268.76 210.913 268.76C210.913 273.24 210.913 277.32 210.913 281.48C210.913 287.16 207.073 291 201.393 291C195.553 291 191.713 287.16 191.713 281.48C191.713 269.32 191.713 257.08 191.713 244.92ZM212.513 254.2H210.913V263.16H212.513V254.2ZM234.676 282.6C234.676 277.96 237.796 274.2 241.956 274.2C243.316 274.2 246.356 274.2 246.836 274.2C246.836 273.72 246.836 272.76 246.836 272.6C240.756 272.6 237.556 269.64 236.836 265.88C235.236 257.32 233.876 251.24 233.396 244.52C232.996 238.84 236.596 235 242.276 235C248.196 235 251.956 238.84 251.956 244.52C251.956 252.44 251.956 263.48 251.956 271.8H253.556C253.556 265.08 253.556 253.8 253.556 244.52C253.556 238.84 257.396 235 263.076 235C268.996 235 272.516 238.76 272.116 244.44C271.556 252.84 270.596 265.32 269.876 275.24C269.236 283.64 262.756 291 254.036 291C248.356 291 247.716 291 242.036 291C237.876 291 234.676 287.4 234.676 282.6ZM278.119 281.08C278.119 268.92 278.119 256.68 278.119 244.52C278.119 238.84 281.959 235 287.799 235C288.279 235 288.759 235 289.399 235.08C295.959 235.08 299.959 235.08 306.999 235.08C312.679 235.08 316.519 238.92 316.519 244.76C316.519 250.44 312.679 254.28 306.999 254.28C303.159 254.28 300.279 254.28 297.319 254.2C297.319 255.16 297.319 256.2 297.319 257.24C298.279 257.24 299.719 257.24 301.399 257.24C311.399 257.24 318.119 263.96 318.119 274.28C318.119 284.28 311.399 291 301.399 291H288.039C282.119 291 278.119 287 278.119 281.08ZM297.319 274.84H298.919V262.84H297.319V274.84ZM319.722 284.52C319.722 280.44 322.362 277.88 326.442 277.88C330.442 277.88 333.082 280.44 333.082 284.52C333.082 288.6 330.442 291.16 326.442 291.16C322.362 291.16 319.722 288.6 319.722 284.52Z" fill="white"/>
</svg>
