<svg width="388" height="417" viewBox="0 0 388 417" fill="none" xmlns="http://www.w3.org/2000/svg">
<rect width="388" height="417" fill="#E89BB0"/>
<path d="M122.557 185H122.397C116.717 185 112.877 181.16 112.877 175.48V169.16H109.997C99.1966 169.16 92.0766 162.04 92.0766 151.24V138.52C92.0766 132.84 95.8366 129 101.757 129C107.437 129 111.277 132.84 111.277 138.52V163.56H112.957V138.6C112.957 132.84 116.797 129 122.717 129C128.397 129 132.237 132.84 132.237 138.52L132.077 175.48C132.077 181.16 128.237 185 122.557 185ZM156.217 165.72C157.337 165.72 159.337 165.72 161.577 165.72C167.017 165.72 170.617 169.56 170.617 175.48C170.617 181.16 167.017 185 161.577 185C156.937 185 151.817 185 146.617 185C140.777 185 137.017 180.92 137.017 175V139C137.017 133.08 140.777 129 146.617 129C151.817 129 156.137 129 160.777 129C166.217 129 169.817 132.84 169.817 138.52C169.817 144.44 166.217 148.28 160.777 148.28C158.537 148.28 157.337 148.28 156.217 148.28C156.217 149.88 156.217 151.48 156.217 152.92C158.537 152.92 160.057 152.92 161.897 153C164.217 153 165.817 154.68 165.897 157.08C165.897 159.4 164.297 161 161.977 161C160.857 161 160.297 161 156.217 160.84C156.217 162.44 156.217 164.12 156.217 165.72ZM203.254 129H203.494C209.174 129 213.014 132.76 213.014 138.52C213.014 141.56 213.014 144.76 213.014 147.8C213.014 154.28 208.694 158.6 202.214 158.6C200.054 158.6 197.974 158.6 196.294 158.6V160.12C198.054 160.12 200.774 160.2 203.414 160.2C209.174 160.2 213.094 164.12 213.094 169.88C213.094 171.88 213.094 173.96 213.094 175.96C213.094 181.4 209.494 185 204.054 185C197.814 185 193.814 180.92 193.814 174.92C193.814 169.8 193.814 164.44 193.814 161.8H192.294C192.294 165.56 192.294 170.36 192.294 175.48C192.294 181.16 188.454 185 182.774 185C176.854 185 173.014 181.16 173.014 175.48C173.014 173.96 173.014 172.44 173.014 170.92C173.014 164.44 177.334 160.12 183.814 160.12C185.974 160.12 188.054 160.12 189.814 160.12V158.6C187.814 158.6 185.734 158.6 183.814 158.6C177.334 158.6 173.014 154.28 173.014 147.8C173.014 144.68 173.014 141.56 173.014 138.52C173.014 132.76 176.854 129 182.534 129C188.454 129 192.214 132.76 192.214 138.52C192.214 145.72 192.294 154.2 192.294 156.12H193.734C193.734 151.48 193.734 144.44 193.734 138.52C193.734 132.76 197.574 129 203.254 129ZM216.295 162.2V151.8C216.295 135.56 225.815 129 236.295 129C246.935 129 256.375 135.56 256.375 151.8V162.2C256.375 178.44 247.735 185 236.375 185C225.015 185 216.295 178.44 216.295 162.2ZM235.575 148.36V165.72H237.175V148.36H235.575ZM279.097 175.96C279.097 166.6 279.097 155 279.097 148.2H277.497C277.497 156.68 277.497 167.96 277.497 175.96C277.497 181.4 273.657 185 267.817 185C262.057 185 258.537 181.4 258.857 175.96C259.497 167.32 260.457 154.28 261.177 144.04C261.817 135.08 268.697 129 278.457 129C287.977 129 294.697 135 295.417 144.12C296.137 154.28 297.017 167.32 297.657 175.96C298.057 181.4 294.537 185 288.617 185C282.937 185 279.097 181.4 279.097 175.96Z" fill="white"/>
<path d="M73.485 276.84H65.005C50.605 276.84 46.925 269.24 55.725 257.88L69.325 240.36C71.805 237.16 76.205 235 80.205 235C87.725 235 92.605 239.88 92.605 247.16L92.525 257.8C97.645 258.2 100.925 261.88 100.925 267.24C100.925 272.6 97.725 276.28 92.765 276.84V281.48C92.765 287.16 88.925 291 83.245 291C77.325 291 73.485 287.16 73.485 281.48V276.84ZM74.765 256.84H73.485V271.24H74.765V256.84ZM120.968 235H122.328C132.968 235 140.008 241.56 140.008 251.4V274.6C140.008 284.44 132.968 291 120.968 291C110.328 291 103.288 284.44 103.288 274.6V251.4C103.288 241.56 110.328 235 120.968 235ZM122.488 254.36H120.808V271.8H122.488V254.36ZM160.889 235H162.249C172.889 235 179.929 241.56 179.929 251.4V274.6C179.929 284.44 172.889 291 160.889 291C150.249 291 143.209 284.44 143.209 274.6V251.4C143.209 241.56 150.249 235 160.889 235ZM162.409 254.36H160.729V271.8H162.409V254.36ZM196.744 244.92C196.744 239 200.744 235 206.664 235H220.024C230.024 235 236.744 241.72 236.744 251.72C236.744 262.04 230.024 268.76 220.024 268.76C218.344 268.76 216.904 268.76 215.944 268.76C215.944 273.24 215.944 277.32 215.944 281.48C215.944 287.16 212.104 291 206.424 291C200.584 291 196.744 287.16 196.744 281.48C196.744 269.32 196.744 257.08 196.744 244.92ZM217.544 254.2H215.944V263.16H217.544V254.2ZM239.707 282.6C239.707 277.96 242.827 274.2 246.987 274.2C248.347 274.2 251.387 274.2 251.867 274.2C251.867 273.72 251.867 272.76 251.867 272.6C245.787 272.6 242.587 269.64 241.867 265.88C240.267 257.32 238.907 251.24 238.427 244.52C238.027 238.84 241.627 235 247.307 235C253.227 235 256.987 238.84 256.987 244.52C256.987 252.44 256.987 263.48 256.987 271.8H258.587C258.587 265.08 258.587 253.8 258.587 244.52C258.587 238.84 262.427 235 268.107 235C274.027 235 277.547 238.76 277.147 244.44C276.587 252.84 275.627 265.32 274.907 275.24C274.267 283.64 267.787 291 259.067 291C253.387 291 252.747 291 247.067 291C242.907 291 239.707 287.4 239.707 282.6ZM283.15 281.08C283.15 268.92 283.15 256.68 283.15 244.52C283.15 238.84 286.99 235 292.83 235C293.31 235 293.79 235 294.43 235.08C300.99 235.08 304.99 235.08 312.03 235.08C317.71 235.08 321.55 238.92 321.55 244.76C321.55 250.44 317.71 254.28 312.03 254.28C308.19 254.28 305.31 254.28 302.35 254.2C302.35 255.16 302.35 256.2 302.35 257.24C303.31 257.24 304.75 257.24 306.43 257.24C316.43 257.24 323.15 263.96 323.15 274.28C323.15 284.28 316.43 291 306.43 291H293.07C287.15 291 283.15 287 283.15 281.08ZM302.35 274.84H303.95V262.84H302.35V274.84ZM324.753 284.52C324.753 280.44 327.393 277.88 331.473 277.88C335.473 277.88 338.113 280.44 338.113 284.52C338.113 288.6 335.473 291.16 331.473 291.16C327.393 291.16 324.753 288.6 324.753 284.52Z" fill="white"/>
</svg>
