<svg width="388" height="417" viewBox="0 0 388 417" fill="none" xmlns="http://www.w3.org/2000/svg">
<rect width="388" height="417" fill="#E89BB0"/>
<path d="M55.8063 138.52C55.8063 132.84 59.6463 129 65.3263 129C71.1663 129 75.0063 132.84 75.0063 138.52C75.0063 143.96 75.0063 149.8 75.0063 153.8H76.6063C76.6063 149.8 76.6063 143.96 76.6063 138.52C76.6063 132.84 80.4463 129 86.1263 129C91.9663 129 95.8063 132.84 95.8063 138.52C95.8063 139.24 95.8063 140.36 95.8063 141.08C95.8063 151.96 90.9263 158.6 83.3263 158.6C82.2863 158.6 76.0463 158.6 75.0063 158.6C75.0063 159.48 75.0063 159.72 75.0063 160.2C75.5663 160.2 79.0063 160.2 83.3263 160.2C91.0863 160.2 95.8063 165.96 95.8063 175.4C95.8063 181.16 91.9663 185 86.2063 185C80.4463 185 76.6063 181.16 76.6063 175.32C76.6063 172.44 76.6063 167.88 76.6063 165H75.0063C75.0063 166.92 75.0063 171.16 75.0063 175.48C75.0063 181.16 71.1663 185 65.4863 185C59.6463 185 55.8063 181.16 55.8063 175.48C55.8063 163.16 55.8063 150.84 55.8063 138.52ZM99.0094 138.92C99.0094 133 103.009 129 108.929 129H122.289C132.289 129 139.009 135.72 139.009 145.72C139.009 156.04 132.289 162.76 122.289 162.76C120.609 162.76 119.169 162.76 118.209 162.76C118.209 167.24 118.209 171.32 118.209 175.48C118.209 181.16 114.369 185 108.689 185C102.849 185 99.0094 181.16 99.0094 175.48C99.0094 163.32 99.0094 151.08 99.0094 138.92ZM119.809 148.2H118.209V157.16H119.809V148.2ZM141.973 176.6C141.973 171.96 145.092 168.2 149.253 168.2C150.613 168.2 153.653 168.2 154.133 168.2C154.133 167.72 154.133 166.76 154.133 166.6C148.053 166.6 144.853 163.64 144.133 159.88C142.533 151.32 141.173 145.24 140.693 138.52C140.293 132.84 143.893 129 149.573 129C155.493 129 159.253 132.84 159.253 138.52C159.253 146.44 159.253 157.48 159.253 165.8H160.853C160.853 159.08 160.853 147.8 160.853 138.52C160.853 132.84 164.693 129 170.373 129C176.293 129 179.812 132.76 179.413 138.44C178.853 146.84 177.893 159.32 177.173 169.24C176.533 177.64 170.053 185 161.333 185C155.653 185 155.013 185 149.333 185C145.173 185 141.973 181.4 141.973 176.6ZM224.616 138.52C224.616 143.64 224.616 149.08 224.616 153H226.216C226.216 149.08 226.216 143.64 226.216 138.52C226.216 132.84 230.056 129 235.736 129C241.576 129 245.416 132.84 245.416 138.52C245.416 139.24 245.416 139.96 245.416 140.68C245.416 151.48 238.456 158.6 227.736 158.6C226.696 158.6 225.656 158.6 224.616 158.6C224.616 159.48 224.616 159.72 224.616 160.2C225.176 160.2 228.856 160.2 233.176 160.2C240.536 160.2 245.416 165.08 245.416 172.44C245.416 178.2 245.416 185 236.056 185C230.696 185 226.216 180.52 226.216 173.72C226.216 171.16 226.216 168.52 226.216 165.8H224.616C224.616 167.64 224.616 171.56 224.616 175.48C224.616 181.16 220.776 185 214.936 185C209.256 185 205.416 181.16 205.416 175.48C205.416 171.56 205.416 167.64 205.416 165.8H203.816C203.816 168.52 203.816 171.16 203.816 173.72C203.816 180.52 199.336 185 194.776 185C184.936 185 184.616 178.12 184.616 172.44C184.616 165.08 189.496 160.2 196.856 160.2C201.176 160.2 204.856 160.2 205.416 160.2C205.416 159.72 205.416 159.48 205.416 158.6C204.376 158.6 203.336 158.6 202.296 158.6C191.576 158.6 184.616 151.48 184.616 140.68C184.616 139.96 184.616 139.24 184.616 138.52C184.616 132.84 188.456 129 194.296 129C199.976 129 203.816 132.84 203.816 138.52C203.816 143.64 203.816 149.08 203.816 153H205.416C205.416 149.08 205.416 143.64 205.416 138.52C205.416 132.84 209.256 129 215.096 129C220.776 129 224.616 132.84 224.616 138.52ZM249.4 138.52C249.4 132.84 253.24 129 258.92 129C264.76 129 268.6 132.84 268.6 138.52C268.6 143.96 268.6 149.8 268.6 153.8H270.2C270.2 149.8 270.2 143.96 270.2 138.52C270.2 132.84 274.04 129 279.72 129C285.56 129 289.4 132.84 289.4 138.52C289.4 139.24 289.4 140.36 289.4 141.08C289.4 151.96 284.52 158.6 276.92 158.6C275.88 158.6 269.64 158.6 268.6 158.6C268.6 159.48 268.6 159.72 268.6 160.2C269.16 160.2 272.6 160.2 276.92 160.2C284.68 160.2 289.4 165.96 289.4 175.4C289.4 181.16 285.56 185 279.8 185C274.04 185 270.2 181.16 270.2 175.32C270.2 172.44 270.2 167.88 270.2 165H268.6C268.6 166.92 268.6 171.16 268.6 175.48C268.6 181.16 264.76 185 259.08 185C253.24 185 249.4 181.16 249.4 175.48C249.4 163.16 249.4 150.84 249.4 138.52ZM324.843 185H324.683C319.723 185 316.363 181.64 316.363 176.68C316.363 172.12 316.363 166.04 316.363 158.6C315.963 158.6 315.323 158.6 315.003 158.6C315.003 163.4 314.923 168.76 314.843 174.04C314.683 180.68 310.283 185 303.563 185C297.003 185 292.603 180.6 292.603 174.04V137.32C292.603 132.36 295.963 129 301.163 129C306.123 129 309.483 132.36 309.483 137.32C309.483 143.88 309.483 150.52 309.483 157C309.643 157 310.283 157 310.763 157C310.763 151.32 310.763 145.72 310.763 140.12C310.763 133.4 315.163 129 322.043 129C328.763 129 333.163 133.4 333.163 140.12C333.163 152.28 333.163 164.52 333.163 176.68C333.163 181.64 329.803 185 324.843 185Z" fill="white"/>
<path d="M49.4909 281.48C49.4909 275.08 49.4909 268.6 49.4909 262.2H48.5309C42.8509 262.2 39.0109 258.36 39.0109 252.52C39.0109 246.76 42.7709 243 48.5309 243H49.5709C50.2109 238.2 53.8109 235 59.1709 235C64.8509 235 68.6909 238.84 68.6909 244.52C68.6909 256.84 68.6909 269.16 68.6909 281.48C68.6909 287.16 64.9309 291 59.0109 291C53.3309 291 49.4909 287.16 49.4909 281.48ZM72.7016 255.8V254.12C72.7016 242.68 80.3816 235 92.7016 235C104.222 235 111.902 242.68 111.902 255.56C111.902 264.36 106.062 270.2 97.2616 270.2H95.1016V271.8H102.462C108.142 271.8 111.982 275.64 111.982 281.48C111.982 287.16 108.142 291 102.462 291H84.2216C77.2616 291 72.7016 286.44 72.7016 279.32C72.7016 272.36 77.2616 267.8 84.2216 267.8H92.7016V251H91.9016V257.08C91.9016 262.44 88.3816 265.96 82.8616 265.96C76.7816 265.96 72.7016 261.88 72.7016 255.8ZM132.882 235H134.242C144.882 235 151.922 241.56 151.922 251.4V274.6C151.922 284.44 144.882 291 132.882 291C122.242 291 115.202 284.44 115.202 274.6V251.4C115.202 241.56 122.242 235 132.882 235ZM134.402 254.36H132.722V271.8H134.402V254.36ZM172.803 235H174.163C184.803 235 191.843 241.56 191.843 251.4V274.6C191.843 284.44 184.803 291 172.803 291C162.163 291 155.123 284.44 155.123 274.6V251.4C155.123 241.56 162.163 235 172.803 235ZM174.323 254.36H172.643V271.8H174.323V254.36ZM208.658 244.92C208.658 239 212.658 235 218.578 235H231.938C241.938 235 248.658 241.72 248.658 251.72C248.658 262.04 241.938 268.76 231.938 268.76C230.258 268.76 228.818 268.76 227.858 268.76C227.858 273.24 227.858 277.32 227.858 281.48C227.858 287.16 224.018 291 218.338 291C212.498 291 208.658 287.16 208.658 281.48C208.658 269.32 208.658 257.08 208.658 244.92ZM229.458 254.2H227.858V263.16H229.458V254.2ZM251.621 282.6C251.621 277.96 254.741 274.2 258.901 274.2C260.261 274.2 263.301 274.2 263.781 274.2C263.781 273.72 263.781 272.76 263.781 272.6C257.701 272.6 254.501 269.64 253.781 265.88C252.181 257.32 250.821 251.24 250.341 244.52C249.941 238.84 253.541 235 259.221 235C265.141 235 268.901 238.84 268.901 244.52C268.901 252.44 268.901 263.48 268.901 271.8H270.501C270.501 265.08 270.501 253.8 270.501 244.52C270.501 238.84 274.341 235 280.021 235C285.941 235 289.461 238.76 289.061 244.44C288.501 252.84 287.541 265.32 286.821 275.24C286.181 283.64 279.701 291 270.981 291C265.301 291 264.661 291 258.981 291C254.821 291 251.621 287.4 251.621 282.6ZM295.064 281.08C295.064 268.92 295.064 256.68 295.064 244.52C295.064 238.84 298.904 235 304.744 235C305.224 235 305.704 235 306.344 235.08C312.904 235.08 316.904 235.08 323.944 235.08C329.624 235.08 333.464 238.92 333.464 244.76C333.464 250.44 329.624 254.28 323.944 254.28C320.104 254.28 317.224 254.28 314.264 254.2C314.264 255.16 314.264 256.2 314.264 257.24C315.224 257.24 316.664 257.24 318.344 257.24C328.344 257.24 335.064 263.96 335.064 274.28C335.064 284.28 328.344 291 318.344 291H304.984C299.064 291 295.064 287 295.064 281.08ZM314.264 274.84H315.864V262.84H314.264V274.84ZM336.667 284.52C336.667 280.44 339.307 277.88 343.387 277.88C347.387 277.88 350.027 280.44 350.027 284.52C350.027 288.6 347.387 291.16 343.387 291.16C339.307 291.16 336.667 288.6 336.667 284.52Z" fill="white"/>
</svg>
