<svg width="388" height="417" viewBox="0 0 388 417" fill="none" xmlns="http://www.w3.org/2000/svg">
<rect width="388" height="417" fill="#E89BB0"/>
<path d="M82.1253 138.52C82.1253 147 82.1253 155.32 82.1253 165.8H83.6453V135.32C83.6453 133 85.1653 131.4 87.6453 131.4C90.0453 131.4 91.6453 133 91.6453 135.32C91.6453 144.52 91.6453 160.28 91.6453 165.8H93.1653C93.1653 159.64 93.1653 148.2 93.1653 138.52C93.1653 132.84 96.9253 129 102.845 129C108.605 129 112.365 132.84 112.365 138.52C112.365 149.24 112.365 159.88 112.365 170.6C112.365 179.24 106.605 185 97.9653 185C92.7653 185.08 87.1653 185.08 82.6053 185.08C80.5253 185.08 78.7653 185.08 77.2453 185.08C68.6053 185.08 62.8453 179.24 62.8453 170.6C62.8453 160.68 62.8453 147.72 62.8453 138.52C62.8453 132.84 66.6853 129 72.5253 129C78.2853 129 82.1253 132.84 82.1253 138.52ZM116.342 162.2V151.8C116.342 135.56 125.862 129 136.342 129C146.982 129 156.422 135.56 156.422 151.8V162.2C156.422 178.44 147.782 185 136.422 185C125.062 185 116.342 178.44 116.342 162.2ZM135.622 148.36V165.72H137.222V148.36H135.622ZM160.423 175.48V138.84C160.423 132.92 164.343 129 170.263 129H190.583C196.503 129 200.423 132.92 200.423 138.84V175.48C200.423 181.16 196.583 185 190.743 185C185.063 185 181.223 181.16 181.223 175.48V148.2H179.623V175.48C179.623 181.16 175.783 185 169.943 185C164.263 185 160.423 181.16 160.423 175.48ZM205.189 175.48V138.84C205.189 132.92 209.109 129 215.029 129H235.349C241.269 129 245.189 132.92 245.189 138.84V175.48C245.189 181.16 241.349 185 235.509 185C229.829 185 225.989 181.16 225.989 175.48V148.2H224.389V175.48C224.389 181.16 220.549 185 214.709 185C209.029 185 205.189 181.16 205.189 175.48ZM269.155 165.72C270.275 165.72 272.275 165.72 274.515 165.72C279.955 165.72 283.555 169.56 283.555 175.48C283.555 181.16 279.955 185 274.515 185C269.875 185 264.755 185 259.555 185C253.715 185 249.955 180.92 249.955 175V139C249.955 133.08 253.715 129 259.555 129C264.755 129 269.075 129 273.715 129C279.155 129 282.755 132.84 282.755 138.52C282.755 144.44 279.155 148.28 273.715 148.28C271.475 148.28 270.275 148.28 269.155 148.28C269.155 149.88 269.155 151.48 269.155 152.92C271.475 152.92 272.995 152.92 274.835 153C277.155 153 278.755 154.68 278.835 157.08C278.835 159.4 277.235 161 274.915 161C273.795 161 273.235 161 269.155 160.84C269.155 162.44 269.155 164.12 269.155 165.72ZM286.752 138.92C286.752 133 290.752 129 296.672 129H310.032C320.032 129 326.752 135.72 326.752 145.72C326.752 156.04 320.032 162.76 310.032 162.76C308.352 162.76 306.912 162.76 305.952 162.76C305.952 167.24 305.952 171.32 305.952 175.48C305.952 181.16 302.112 185 296.432 185C290.592 185 286.752 181.16 286.752 175.48C286.752 163.32 286.752 151.08 286.752 138.92ZM307.552 148.2H305.952V157.16H307.552V148.2Z" fill="white"/>
<path d="M75.6869 291C64.1669 291 55.9269 283.32 55.9269 271.8C55.9269 265.24 55.6869 254.6 56.9669 248.92C58.6469 241.64 65.4469 235 76.0869 235C83.8469 235 94.4069 238.6 94.3269 248.6C94.3269 251.96 91.7669 254.68 87.4469 255.24C80.9669 256.12 76.7269 253.32 76.7269 251.08H75.1269V255.88C76.3269 255.88 81.6869 255.88 82.7269 255.88C90.1669 256.12 95.9269 262.28 95.9269 271.96C95.9269 283.4 87.4469 291 75.6869 291ZM75.1269 261.4V275H76.7269V261.4H75.1269ZM116.046 235H117.406C128.046 235 135.086 241.56 135.086 251.4V274.6C135.086 284.44 128.046 291 116.046 291C105.406 291 98.3656 284.44 98.3656 274.6V251.4C98.3656 241.56 105.406 235 116.046 235ZM117.566 254.36H115.886V271.8H117.566V254.36ZM155.968 235H157.328C167.968 235 175.008 241.56 175.008 251.4V274.6C175.008 284.44 167.968 291 155.968 291C145.328 291 138.288 284.44 138.288 274.6V251.4C138.288 241.56 145.328 235 155.968 235ZM157.488 254.36H155.808V271.8H157.488V254.36ZM191.822 244.92C191.822 239 195.822 235 201.742 235H215.102C225.102 235 231.822 241.72 231.822 251.72C231.822 262.04 225.102 268.76 215.102 268.76C213.422 268.76 211.982 268.76 211.022 268.76C211.022 273.24 211.022 277.32 211.022 281.48C211.022 287.16 207.182 291 201.502 291C195.662 291 191.822 287.16 191.822 281.48C191.822 269.32 191.822 257.08 191.822 244.92ZM212.622 254.2H211.022V263.16H212.622V254.2ZM234.785 282.6C234.785 277.96 237.905 274.2 242.065 274.2C243.425 274.2 246.465 274.2 246.945 274.2C246.945 273.72 246.945 272.76 246.945 272.6C240.865 272.6 237.665 269.64 236.945 265.88C235.345 257.32 233.985 251.24 233.505 244.52C233.105 238.84 236.705 235 242.385 235C248.305 235 252.065 238.84 252.065 244.52C252.065 252.44 252.065 263.48 252.065 271.8H253.665C253.665 265.08 253.665 253.8 253.665 244.52C253.665 238.84 257.505 235 263.185 235C269.105 235 272.625 238.76 272.225 244.44C271.665 252.84 270.705 265.32 269.985 275.24C269.345 283.64 262.865 291 254.145 291C248.465 291 247.825 291 242.145 291C237.985 291 234.785 287.4 234.785 282.6ZM278.228 281.08C278.228 268.92 278.228 256.68 278.228 244.52C278.228 238.84 282.068 235 287.908 235C288.388 235 288.868 235 289.508 235.08C296.068 235.08 300.068 235.08 307.108 235.08C312.788 235.08 316.628 238.92 316.628 244.76C316.628 250.44 312.788 254.28 307.108 254.28C303.268 254.28 300.388 254.28 297.428 254.2C297.428 255.16 297.428 256.2 297.428 257.24C298.388 257.24 299.828 257.24 301.508 257.24C311.508 257.24 318.228 263.96 318.228 274.28C318.228 284.28 311.508 291 301.508 291H288.148C282.228 291 278.228 287 278.228 281.08ZM297.428 274.84H299.028V262.84H297.428V274.84ZM319.831 284.52C319.831 280.44 322.471 277.88 326.551 277.88C330.551 277.88 333.191 280.44 333.191 284.52C333.191 288.6 330.551 291.16 326.551 291.16C322.471 291.16 319.831 288.6 319.831 284.52Z" fill="white"/>
</svg>
