<svg width="388" height="417" viewBox="0 0 388 417" fill="none" xmlns="http://www.w3.org/2000/svg">
<rect width="388" height="417" fill="#E89BB0"/>
<path d="M127.798 138.52C127.798 150.84 127.798 163.16 127.798 175.48C127.798 181.16 124.038 185 118.118 185C112.438 185 108.598 181.16 108.598 175.48C108.598 173.4 108.598 162.52 108.598 160.36H106.998C106.998 162.52 106.998 173.4 106.998 175.48C106.998 181.16 103.238 185 97.3184 185C91.6384 185 87.7984 181.16 87.7984 175.48C87.7984 163.16 87.7984 150.84 87.7984 138.52C87.7984 132.84 91.5584 129 97.4784 129C103.158 129 106.998 132.84 106.998 138.52V154.76H108.598V138.52C108.598 132.84 112.358 129 118.278 129C123.958 129 127.798 132.84 127.798 138.52ZM131.764 162.2V151.8C131.764 135.56 141.284 129 151.764 129C162.404 129 171.844 135.56 171.844 151.8V162.2C171.844 178.44 163.204 185 151.844 185C140.484 185 131.764 178.44 131.764 162.2ZM151.044 148.36V165.72H152.644V148.36H151.044ZM214.245 149.16C214.245 154.76 210.405 158.52 204.645 158.52C198.885 158.52 195.045 154.76 195.045 149.16V148.2H193.445V165.8H195.045C195.045 165.48 195.045 165.08 195.045 164.76C195.045 161.4 198.885 159.24 204.645 159.24C210.245 159.24 213.925 163.16 213.925 169.08C213.925 178.68 206.085 185 194.245 185C182.245 185 174.245 177 174.245 165.08V149.16C174.245 137.08 182.245 129 194.245 129C206.165 129 214.245 137.16 214.245 149.16ZM217.408 138.52C217.408 132.84 221.248 129 226.928 129C232.768 129 236.608 132.84 236.608 138.52C236.608 143.96 236.608 149.8 236.608 153.8H238.208C238.208 149.8 238.208 143.96 238.208 138.52C238.208 132.84 242.048 129 247.728 129C253.568 129 257.408 132.84 257.408 138.52C257.408 139.24 257.408 140.36 257.408 141.08C257.408 151.96 252.528 158.6 244.928 158.6C243.888 158.6 237.648 158.6 236.608 158.6C236.608 159.48 236.608 159.72 236.608 160.2C237.168 160.2 240.608 160.2 244.928 160.2C252.688 160.2 257.408 165.96 257.408 175.4C257.408 181.16 253.568 185 247.808 185C242.048 185 238.208 181.16 238.208 175.32C238.208 172.44 238.208 167.88 238.208 165H236.608C236.608 166.92 236.608 171.16 236.608 175.48C236.608 181.16 232.768 185 227.088 185C221.248 185 217.408 181.16 217.408 175.48C217.408 163.16 217.408 150.84 217.408 138.52ZM292.851 185H292.691C287.731 185 284.371 181.64 284.371 176.68C284.371 172.12 284.371 166.04 284.371 158.6C283.971 158.6 283.331 158.6 283.011 158.6C283.011 163.4 282.931 168.76 282.851 174.04C282.691 180.68 278.291 185 271.571 185C265.011 185 260.611 180.6 260.611 174.04V137.32C260.611 132.36 263.971 129 269.171 129C274.131 129 277.491 132.36 277.491 137.32C277.491 143.88 277.491 150.52 277.491 157C277.651 157 278.291 157 278.771 157C278.771 151.32 278.771 145.72 278.771 140.12C278.771 133.4 283.171 129 290.051 129C296.771 129 301.171 133.4 301.171 140.12C301.171 152.28 301.171 164.52 301.171 176.68C301.171 181.64 297.811 185 292.851 185Z" fill="white"/>
<path d="M55.7953 272.84V271.56C55.7953 265.56 59.7153 261.64 65.7153 261.64C71.3153 261.64 74.9953 265.32 74.9953 270.76V275H75.7953V261.32H68.5953C66.6753 261.32 65.3953 260.04 65.3953 258.12C65.3953 256.28 66.5953 255.08 68.3553 255.08L75.7953 255V254.2H65.3153C59.5553 254.2 55.7953 250.44 55.7953 244.68C55.7953 238.84 59.6353 235 65.3153 235H83.0753C89.7953 235 94.1953 239.4 94.1953 246.12C94.1953 253 89.7953 257.4 83.0753 257.4H78.1953V259H81.3153C89.5553 259 94.9953 264.44 94.9953 272.68C94.9953 283.8 87.7953 291 76.9953 291H73.9553C63.0753 291 55.7953 283.72 55.7953 272.84ZM115.897 235H117.257C127.897 235 134.937 241.56 134.937 251.4V274.6C134.937 284.44 127.897 291 115.897 291C105.257 291 98.2172 284.44 98.2172 274.6V251.4C98.2172 241.56 105.257 235 115.897 235ZM117.417 254.36H115.737V271.8H117.417V254.36ZM155.819 235H157.179C167.819 235 174.859 241.56 174.859 251.4V274.6C174.859 284.44 167.819 291 155.819 291C145.179 291 138.139 284.44 138.139 274.6V251.4C138.139 241.56 145.179 235 155.819 235ZM157.339 254.36H155.659V271.8H157.339V254.36ZM191.673 244.92C191.673 239 195.673 235 201.593 235H214.953C224.953 235 231.673 241.72 231.673 251.72C231.673 262.04 224.953 268.76 214.953 268.76C213.273 268.76 211.833 268.76 210.873 268.76C210.873 273.24 210.873 277.32 210.873 281.48C210.873 287.16 207.033 291 201.353 291C195.513 291 191.673 287.16 191.673 281.48C191.673 269.32 191.673 257.08 191.673 244.92ZM212.473 254.2H210.873V263.16H212.473V254.2ZM234.637 282.6C234.637 277.96 237.757 274.2 241.917 274.2C243.277 274.2 246.317 274.2 246.797 274.2C246.797 273.72 246.797 272.76 246.797 272.6C240.717 272.6 237.517 269.64 236.797 265.88C235.197 257.32 233.837 251.24 233.357 244.52C232.957 238.84 236.557 235 242.237 235C248.157 235 251.917 238.84 251.917 244.52C251.917 252.44 251.917 263.48 251.917 271.8H253.517C253.517 265.08 253.517 253.8 253.517 244.52C253.517 238.84 257.357 235 263.037 235C268.957 235 272.477 238.76 272.077 244.44C271.517 252.84 270.557 265.32 269.837 275.24C269.197 283.64 262.717 291 253.997 291C248.317 291 247.677 291 241.997 291C237.837 291 234.637 287.4 234.637 282.6ZM278.08 281.08C278.08 268.92 278.08 256.68 278.08 244.52C278.08 238.84 281.92 235 287.76 235C288.24 235 288.72 235 289.36 235.08C295.92 235.08 299.92 235.08 306.96 235.08C312.64 235.08 316.48 238.92 316.48 244.76C316.48 250.44 312.64 254.28 306.96 254.28C303.12 254.28 300.24 254.28 297.28 254.2C297.28 255.16 297.28 256.2 297.28 257.24C298.24 257.24 299.68 257.24 301.36 257.24C311.36 257.24 318.08 263.96 318.08 274.28C318.08 284.28 311.36 291 301.36 291H288C282.08 291 278.08 287 278.08 281.08ZM297.28 274.84H298.88V262.84H297.28V274.84ZM319.683 284.52C319.683 280.44 322.323 277.88 326.403 277.88C330.403 277.88 333.043 280.44 333.043 284.52C333.043 288.6 330.403 291.16 326.403 291.16C322.323 291.16 319.683 288.6 319.683 284.52Z" fill="white"/>
</svg>
