<svg width="388" height="417" viewBox="0 0 388 417" fill="none" xmlns="http://www.w3.org/2000/svg">
<rect width="388" height="417" fill="#E89BB0"/>
<path d="M66.4781 138.52C66.4781 150.84 66.4781 163.16 66.4781 175.48C66.4781 181.16 62.7181 185 56.7981 185C51.1181 185 47.2781 181.16 47.2781 175.48C47.2781 173.4 47.2781 162.52 47.2781 160.36H45.6781C45.6781 162.52 45.6781 173.4 45.6781 175.48C45.6781 181.16 41.9181 185 35.9981 185C30.3181 185 26.4781 181.16 26.4781 175.48C26.4781 163.16 26.4781 150.84 26.4781 138.52C26.4781 132.84 30.2381 129 36.1581 129C41.8381 129 45.6781 132.84 45.6781 138.52V154.76H47.2781V138.52C47.2781 132.84 51.0381 129 56.9581 129C62.6381 129 66.4781 132.84 66.4781 138.52ZM89.9637 175.88C89.9637 173.64 89.9637 171.24 89.9637 169.16H88.3638C88.3638 171.4 88.3638 173.96 88.3638 175.88C88.3638 181.32 84.6038 185 78.6838 185C73.0038 185 69.3238 181.32 69.7238 175.88C70.2838 167.32 71.3238 154.28 72.0438 144.04C72.6838 135.08 79.4838 129 89.3238 129C98.7638 129 105.644 135.08 106.284 144.04C107.004 154.28 107.884 167.32 108.524 175.88C108.924 181.32 105.404 185 99.4838 185C93.8038 185 89.9637 181.32 89.9637 175.88ZM88.3638 148.2V163.56H89.9637C89.9637 158.04 89.9637 151.96 89.9637 148.2H88.3638ZM111.791 138.52C111.791 132.84 115.631 129 121.311 129C127.151 129 130.991 132.84 130.991 138.52C130.991 143.96 130.991 149.8 130.991 153.8H132.591C132.591 149.8 132.591 143.96 132.591 138.52C132.591 132.84 136.431 129 142.111 129C147.951 129 151.791 132.84 151.791 138.52C151.791 139.24 151.791 140.36 151.791 141.08C151.791 151.96 146.911 158.6 139.311 158.6C138.271 158.6 132.031 158.6 130.991 158.6C130.991 159.48 130.991 159.72 130.991 160.2C131.551 160.2 134.991 160.2 139.311 160.2C147.071 160.2 151.791 165.96 151.791 175.4C151.791 181.16 147.951 185 142.191 185C136.431 185 132.591 181.16 132.591 175.32C132.591 172.44 132.591 167.88 132.591 165H130.991C130.991 166.92 130.991 171.16 130.991 175.48C130.991 181.16 127.151 185 121.471 185C115.631 185 111.791 181.16 111.791 175.48C111.791 163.16 111.791 150.84 111.791 138.52ZM173.714 175.96C173.714 166.6 173.714 155 173.714 148.2H172.114C172.114 156.68 172.114 167.96 172.114 175.96C172.114 181.4 168.274 185 162.434 185C156.674 185 153.154 181.4 153.474 175.96C154.114 167.32 155.074 154.28 155.794 144.04C156.434 135.08 163.314 129 173.074 129C182.594 129 189.314 135 190.034 144.12C190.754 154.28 191.634 167.32 192.274 175.96C192.674 181.4 189.154 185 183.234 185C177.554 185 173.714 181.4 173.714 175.96ZM214.741 165.72C215.861 165.72 217.861 165.72 220.101 165.72C225.541 165.72 229.141 169.56 229.141 175.48C229.141 181.16 225.541 185 220.101 185C215.461 185 210.341 185 205.141 185C199.301 185 195.541 180.92 195.541 175V139C195.541 133.08 199.301 129 205.141 129C210.341 129 214.661 129 219.301 129C224.741 129 228.341 132.84 228.341 138.52C228.341 144.44 224.741 148.28 219.301 148.28C217.061 148.28 215.861 148.28 214.741 148.28C214.741 149.88 214.741 151.48 214.741 152.92C217.061 152.92 218.581 152.92 220.421 153C222.741 153 224.341 154.68 224.421 157.08C224.421 159.4 222.821 161 220.501 161C219.381 161 218.821 161 214.741 160.84C214.741 162.44 214.741 164.12 214.741 165.72ZM258.018 127.4H247.378C243.858 127.4 241.458 125 241.458 121.48C241.458 117.88 243.858 115.48 247.378 115.48H258.018C261.538 115.48 263.938 117.88 263.938 121.4C263.938 125 261.538 127.4 258.018 127.4ZM264.578 185H264.418C259.458 185 256.098 181.64 256.098 176.68C256.098 172.12 256.098 166.04 256.098 158.6C255.698 158.6 255.058 158.6 254.738 158.6C254.738 163.4 254.658 168.76 254.578 174.04C254.418 180.68 250.018 185 243.298 185C236.738 185 232.338 180.6 232.338 174.04V137.32C232.338 132.36 235.698 129 240.898 129C245.858 129 249.218 132.36 249.218 137.32C249.218 143.88 249.218 150.52 249.218 157C249.378 157 250.018 157 250.497 157C250.497 151.32 250.497 145.72 250.497 140.12C250.497 133.4 254.898 129 261.778 129C268.498 129 272.898 133.4 272.898 140.12C272.898 152.28 272.898 164.52 272.898 176.68C272.898 181.64 269.538 185 264.578 185ZM277.728 138.52C277.728 132.84 281.568 129 287.248 129C293.088 129 296.928 132.84 296.928 138.52C296.928 143.96 296.928 149.8 296.928 153.8H298.528C298.528 149.8 298.528 143.96 298.528 138.52C298.528 132.84 302.368 129 308.048 129C313.888 129 317.728 132.84 317.728 138.52C317.728 139.24 317.728 140.36 317.728 141.08C317.728 151.96 312.848 158.6 305.248 158.6C304.208 158.6 297.968 158.6 296.928 158.6C296.928 159.48 296.928 159.72 296.928 160.2C297.488 160.2 300.928 160.2 305.248 160.2C313.008 160.2 317.728 165.96 317.728 175.4C317.728 181.16 313.888 185 308.128 185C302.368 185 298.528 181.16 298.528 175.32C298.528 172.44 298.528 167.88 298.528 165H296.928C296.928 166.92 296.928 171.16 296.928 175.48C296.928 181.16 293.088 185 287.408 185C281.568 185 277.728 181.16 277.728 175.48C277.728 163.16 277.728 150.84 277.728 138.52ZM353.171 185H353.011C348.051 185 344.691 181.64 344.691 176.68C344.691 172.12 344.691 166.04 344.691 158.6C344.291 158.6 343.651 158.6 343.331 158.6C343.331 163.4 343.251 168.76 343.171 174.04C343.011 180.68 338.611 185 331.891 185C325.331 185 320.931 180.6 320.931 174.04V137.32C320.931 132.36 324.291 129 329.491 129C334.451 129 337.811 132.36 337.811 137.32C337.811 143.88 337.811 150.52 337.811 157C337.971 157 338.611 157 339.091 157C339.091 151.32 339.091 145.72 339.091 140.12C339.091 133.4 343.491 129 350.371 129C357.091 129 361.491 133.4 361.491 140.12C361.491 152.28 361.491 164.52 361.491 176.68C361.491 181.64 358.131 185 353.171 185Z" fill="white"/>
<path d="M55.7953 272.84V271.56C55.7953 265.56 59.7153 261.64 65.7153 261.64C71.3153 261.64 74.9953 265.32 74.9953 270.76V275H75.7953V261.32H68.5953C66.6753 261.32 65.3953 260.04 65.3953 258.12C65.3953 256.28 66.5953 255.08 68.3553 255.08L75.7953 255V254.2H65.3153C59.5553 254.2 55.7953 250.44 55.7953 244.68C55.7953 238.84 59.6353 235 65.3153 235H83.0753C89.7953 235 94.1953 239.4 94.1953 246.12C94.1953 253 89.7953 257.4 83.0753 257.4H78.1953V259H81.3153C89.5553 259 94.9953 264.44 94.9953 272.68C94.9953 283.8 87.7953 291 76.9953 291H73.9553C63.0753 291 55.7953 283.72 55.7953 272.84ZM115.897 235H117.257C127.897 235 134.937 241.56 134.937 251.4V274.6C134.937 284.44 127.897 291 115.897 291C105.257 291 98.2172 284.44 98.2172 274.6V251.4C98.2172 241.56 105.257 235 115.897 235ZM117.417 254.36H115.737V271.8H117.417V254.36ZM155.819 235H157.179C167.819 235 174.859 241.56 174.859 251.4V274.6C174.859 284.44 167.819 291 155.819 291C145.179 291 138.139 284.44 138.139 274.6V251.4C138.139 241.56 145.179 235 155.819 235ZM157.339 254.36H155.659V271.8H157.339V254.36ZM191.673 244.92C191.673 239 195.673 235 201.593 235H214.953C224.953 235 231.673 241.72 231.673 251.72C231.673 262.04 224.953 268.76 214.953 268.76C213.273 268.76 211.833 268.76 210.873 268.76C210.873 273.24 210.873 277.32 210.873 281.48C210.873 287.16 207.033 291 201.353 291C195.513 291 191.673 287.16 191.673 281.48C191.673 269.32 191.673 257.08 191.673 244.92ZM212.473 254.2H210.873V263.16H212.473V254.2ZM234.637 282.6C234.637 277.96 237.757 274.2 241.917 274.2C243.277 274.2 246.317 274.2 246.797 274.2C246.797 273.72 246.797 272.76 246.797 272.6C240.717 272.6 237.517 269.64 236.797 265.88C235.197 257.32 233.837 251.24 233.357 244.52C232.957 238.84 236.557 235 242.237 235C248.157 235 251.917 238.84 251.917 244.52C251.917 252.44 251.917 263.48 251.917 271.8H253.517C253.517 265.08 253.517 253.8 253.517 244.52C253.517 238.84 257.357 235 263.037 235C268.957 235 272.477 238.76 272.077 244.44C271.517 252.84 270.557 265.32 269.837 275.24C269.197 283.64 262.717 291 253.997 291C248.317 291 247.677 291 241.997 291C237.837 291 234.637 287.4 234.637 282.6ZM278.08 281.08C278.08 268.92 278.08 256.68 278.08 244.52C278.08 238.84 281.92 235 287.76 235C288.24 235 288.72 235 289.36 235.08C295.92 235.08 299.92 235.08 306.96 235.08C312.64 235.08 316.48 238.92 316.48 244.76C316.48 250.44 312.64 254.28 306.96 254.28C303.12 254.28 300.24 254.28 297.28 254.2C297.28 255.16 297.28 256.2 297.28 257.24C298.24 257.24 299.68 257.24 301.36 257.24C311.36 257.24 318.08 263.96 318.08 274.28C318.08 284.28 311.36 291 301.36 291H288C282.08 291 278.08 287 278.08 281.08ZM297.28 274.84H298.88V262.84H297.28V274.84ZM319.683 284.52C319.683 280.44 322.323 277.88 326.403 277.88C330.403 277.88 333.043 280.44 333.043 284.52C333.043 288.6 330.403 291.16 326.403 291.16C322.323 291.16 319.683 288.6 319.683 284.52Z" fill="white"/>
</svg>
