<svg width="388" height="417" viewBox="0 0 388 417" fill="none" xmlns="http://www.w3.org/2000/svg">
<rect width="388" height="417" fill="#E89BB0"/>
<path d="M56.0891 129H58.9691C69.6891 129 76.8891 136.2 76.8891 146.92C76.8891 158.6 69.6891 165.8 58.9691 165.8C57.8491 165.8 56.8091 165.8 56.0891 165.8C56.0891 169.8 56.0891 172.6 56.0891 175.48C56.0891 181.16 52.2491 185 46.5691 185C40.7291 185 36.8891 181.16 36.8891 175.48C36.8891 172.6 36.8891 169.8 36.8891 165.8C36.1691 165.8 35.1291 165.8 34.0091 165.8C23.2891 165.8 16.0891 158.6 16.0891 146.92C16.0891 136.2 23.2891 129 34.0091 129H36.8891C36.8891 128.68 36.8891 128.44 36.8891 128.12C36.8891 122.44 40.7291 118.6 46.5691 118.6C52.2491 118.6 56.0891 122.44 56.0891 128.12C56.0891 128.44 56.0891 128.68 56.0891 129ZM36.8891 148.2H35.2891V159.4H36.8891C36.8891 154.44 36.8891 153.16 36.8891 148.2ZM57.6891 148.2H56.0891V160.2H57.6891V148.2ZM79.8709 176.6C79.8709 171.96 82.9909 168.2 87.1509 168.2C88.5109 168.2 91.5509 168.2 92.0309 168.2C92.0309 167.72 92.0309 166.76 92.0309 166.6C85.9509 166.6 82.7509 163.64 82.0309 159.88C80.4309 151.32 79.0709 145.24 78.5909 138.52C78.1909 132.84 81.7909 129 87.4709 129C93.3909 129 97.1509 132.84 97.1509 138.52C97.1509 146.44 97.1509 157.48 97.1509 165.8H98.7509C98.7509 159.08 98.7509 147.8 98.7509 138.52C98.7509 132.84 102.591 129 108.271 129C114.191 129 117.711 132.76 117.311 138.44C116.751 146.84 115.791 159.32 115.071 169.24C114.431 177.64 107.951 185 99.2309 185C93.5509 185 92.9109 185 87.2309 185C83.0709 185 79.8709 181.4 79.8709 176.6ZM150.994 175.48C150.994 181.24 147.154 185 141.474 185C135.634 185 131.794 181.24 131.794 175.48C131.794 166.36 131.714 158.2 131.714 148.2C125.794 148.2 121.714 144.76 121.714 138.68C121.714 132.84 125.554 129 131.234 129C138.034 129 144.834 129 151.634 129C157.314 129 161.154 132.84 161.154 138.52C161.154 144.76 157.154 148.2 151.074 148.2C151.074 158.2 150.994 166.36 150.994 175.48ZM164.33 175.08C164.33 162.92 164.33 150.68 164.33 138.52C164.33 132.84 168.17 129 174.01 129C174.49 129 174.97 129 175.61 129.08C182.17 129.08 186.17 129.08 193.21 129.08C198.89 129.08 202.73 132.92 202.73 138.76C202.73 144.44 198.89 148.28 193.21 148.28C189.37 148.28 186.49 148.28 183.53 148.2C183.53 149.16 183.53 150.2 183.53 151.24C184.49 151.24 185.93 151.24 187.61 151.24C197.61 151.24 204.33 157.96 204.33 168.28C204.33 178.28 197.61 185 187.61 185H174.25C168.33 185 164.33 181 164.33 175.08ZM183.53 168.84H185.13V156.84H183.53V168.84ZM206.733 162.2V151.8C206.733 135.56 216.253 129 226.733 129C237.373 129 246.813 135.56 246.813 151.8V162.2C246.813 178.44 238.173 185 226.813 185C215.453 185 206.733 178.44 206.733 162.2ZM226.013 148.36V165.72H227.613V148.36H226.013ZM269.534 175.96C269.534 166.6 269.534 155 269.534 148.2H267.934C267.934 156.68 267.934 167.96 267.934 175.96C267.934 181.4 264.094 185 258.254 185C252.494 185 248.974 181.4 249.294 175.96C249.934 167.32 250.894 154.28 251.614 144.04C252.254 135.08 259.134 129 268.894 129C278.414 129 285.134 135 285.854 144.12C286.574 154.28 287.454 167.32 288.094 175.96C288.494 181.4 284.974 185 279.054 185C273.374 185 269.534 181.4 269.534 175.96ZM291.361 138.52C291.361 132.84 295.201 129 300.881 129C306.721 129 310.561 132.84 310.561 138.52C310.561 143.96 310.561 149.8 310.561 153.8H312.161C312.161 149.8 312.161 143.96 312.161 138.52C312.161 132.84 316.001 129 321.681 129C327.521 129 331.361 132.84 331.361 138.52C331.361 139.24 331.361 140.36 331.361 141.08C331.361 151.96 326.481 158.6 318.881 158.6C317.841 158.6 311.601 158.6 310.561 158.6C310.561 159.48 310.561 159.72 310.561 160.2C311.121 160.2 314.561 160.2 318.881 160.2C326.641 160.2 331.361 165.96 331.361 175.4C331.361 181.16 327.521 185 321.761 185C316.001 185 312.161 181.16 312.161 175.32C312.161 172.44 312.161 167.88 312.161 165H310.561C310.561 166.92 310.561 171.16 310.561 175.48C310.561 181.16 306.721 185 301.041 185C295.201 185 291.361 181.16 291.361 175.48C291.361 163.16 291.361 150.84 291.361 138.52ZM353.284 175.88C353.284 173.64 353.284 171.24 353.284 169.16H351.684C351.684 171.4 351.684 173.96 351.684 175.88C351.684 181.32 347.924 185 342.004 185C336.324 185 332.644 181.32 333.044 175.88C333.604 167.32 334.644 154.28 335.364 144.04C336.004 135.08 342.804 129 352.644 129C362.084 129 368.964 135.08 369.604 144.04C370.324 154.28 371.204 167.32 371.844 175.88C372.244 181.32 368.724 185 362.804 185C357.124 185 353.284 181.32 353.284 175.88ZM351.684 148.2V163.56H353.284C353.284 158.04 353.284 151.96 353.284 148.2H351.684Z" fill="white"/>
<path d="M75.7984 291C64.5184 291 56.9984 282.76 56.9984 274.84C56.9984 267.16 59.5584 261.8 69.3184 261.48V260.2C61.1584 260.2 57.0784 254.6 57.0784 247.8C57.0784 239.48 64.7584 235.08 75.9584 235C87.4784 234.92 94.8384 239.48 94.8384 247.8C94.8384 254.52 90.7584 259.88 82.1184 259.88V261.48C91.3984 261.72 94.7584 267.16 94.7584 275.08C94.7584 282.84 87.8784 291 75.7984 291ZM74.9984 259.32H76.5984V251.08H74.9984V259.32ZM75.1584 274.92H76.5984V264.92H75.1584V274.92ZM115.694 235H117.054C127.694 235 134.734 241.56 134.734 251.4V274.6C134.734 284.44 127.694 291 115.694 291C105.054 291 98.0141 284.44 98.0141 274.6V251.4C98.0141 241.56 105.054 235 115.694 235ZM117.214 254.36H115.534V271.8H117.214V254.36ZM155.616 235H156.976C167.616 235 174.656 241.56 174.656 251.4V274.6C174.656 284.44 167.616 291 155.616 291C144.976 291 137.936 284.44 137.936 274.6V251.4C137.936 241.56 144.976 235 155.616 235ZM157.136 254.36H155.456V271.8H157.136V254.36ZM191.47 244.92C191.47 239 195.47 235 201.39 235H214.75C224.75 235 231.47 241.72 231.47 251.72C231.47 262.04 224.75 268.76 214.75 268.76C213.07 268.76 211.63 268.76 210.67 268.76C210.67 273.24 210.67 277.32 210.67 281.48C210.67 287.16 206.83 291 201.15 291C195.31 291 191.47 287.16 191.47 281.48C191.47 269.32 191.47 257.08 191.47 244.92ZM212.27 254.2H210.67V263.16H212.27V254.2ZM234.433 282.6C234.433 277.96 237.553 274.2 241.713 274.2C243.073 274.2 246.113 274.2 246.593 274.2C246.593 273.72 246.593 272.76 246.593 272.6C240.513 272.6 237.313 269.64 236.593 265.88C234.993 257.32 233.633 251.24 233.153 244.52C232.753 238.84 236.353 235 242.033 235C247.953 235 251.713 238.84 251.713 244.52C251.713 252.44 251.713 263.48 251.713 271.8H253.313C253.313 265.08 253.313 253.8 253.313 244.52C253.313 238.84 257.153 235 262.833 235C268.753 235 272.273 238.76 271.873 244.44C271.313 252.84 270.353 265.32 269.633 275.24C268.993 283.64 262.513 291 253.793 291C248.113 291 247.473 291 241.793 291C237.633 291 234.433 287.4 234.433 282.6ZM277.877 281.08C277.877 268.92 277.877 256.68 277.877 244.52C277.877 238.84 281.717 235 287.557 235C288.037 235 288.517 235 289.157 235.08C295.717 235.08 299.717 235.08 306.757 235.08C312.437 235.08 316.277 238.92 316.277 244.76C316.277 250.44 312.437 254.28 306.757 254.28C302.917 254.28 300.037 254.28 297.077 254.2C297.077 255.16 297.077 256.2 297.077 257.24C298.037 257.24 299.477 257.24 301.157 257.24C311.157 257.24 317.877 263.96 317.877 274.28C317.877 284.28 311.157 291 301.157 291H287.797C281.877 291 277.877 287 277.877 281.08ZM297.077 274.84H298.677V262.84H297.077V274.84ZM319.48 284.52C319.48 280.44 322.12 277.88 326.2 277.88C330.2 277.88 332.84 280.44 332.84 284.52C332.84 288.6 330.2 291.16 326.2 291.16C322.12 291.16 319.48 288.6 319.48 284.52Z" fill="white"/>
</svg>
