<svg width="388" height="417" viewBox="0 0 388 417" fill="none" xmlns="http://www.w3.org/2000/svg">
<rect width="388" height="417" fill="#E89BB0"/>
<path d="M34.5134 153C28.8334 153 25.0734 149.4 25.0734 144.04C25.0734 135 32.9934 129 44.8334 129C56.7534 129 64.7534 135 64.7534 144.04C64.7534 152.44 59.1534 157.32 50.5934 157.32C48.2734 157.32 46.0334 157.32 45.6334 157.32V158.92C46.1134 158.92 49.1534 158.92 52.1134 158.92C59.6334 158.92 65.8734 164.84 64.7534 172.92C63.7934 180.12 56.8334 185 44.8334 185C32.8334 185 25.6334 179.16 24.8334 173C24.0334 165.8 28.5934 162.68 34.3534 162.68C40.2734 162.68 44.0334 164.2 44.0334 166.52H45.5534V161.88H31.7134C29.3934 161.88 27.7934 160.36 27.7934 158.2C27.7934 155.96 29.3934 154.52 31.7134 154.52C36.9134 154.52 45.0734 154.52 45.5534 154.52C45.5534 153.56 45.5534 148.2 45.5534 148.2H44.0334C44.0334 151.08 40.1934 153 34.5134 153ZM88.4716 175.88C88.4716 173.64 88.4716 171.24 88.4716 169.16H86.8716C86.8716 171.4 86.8716 173.96 86.8716 175.88C86.8716 181.32 83.1116 185 77.1916 185C71.5116 185 67.8316 181.32 68.2316 175.88C68.7916 167.32 69.8316 154.28 70.5516 144.04C71.1916 135.08 77.9916 129 87.8316 129C97.2716 129 104.152 135.08 104.792 144.04C105.512 154.28 106.392 167.32 107.032 175.88C107.432 181.32 103.912 185 97.9916 185C92.3116 185 88.4716 181.32 88.4716 175.88ZM86.8716 148.2V163.56H88.4716C88.4716 158.04 88.4716 151.96 88.4716 148.2H86.8716ZM110.298 138.52C110.298 132.84 114.138 129 119.818 129C125.658 129 129.498 132.84 129.498 138.52C129.498 143.96 129.498 149.8 129.498 153.8H131.098C131.098 149.8 131.098 143.96 131.098 138.52C131.098 132.84 134.938 129 140.618 129C146.458 129 150.298 132.84 150.298 138.52C150.298 139.24 150.298 140.36 150.298 141.08C150.298 151.96 145.418 158.6 137.818 158.6C136.778 158.6 130.538 158.6 129.498 158.6C129.498 159.48 129.498 159.72 129.498 160.2C130.058 160.2 133.498 160.2 137.818 160.2C145.578 160.2 150.298 165.96 150.298 175.4C150.298 181.16 146.458 185 140.698 185C134.938 185 131.098 181.16 131.098 175.32C131.098 172.44 131.098 167.88 131.098 165H129.498C129.498 166.92 129.498 171.16 129.498 175.48C129.498 181.16 125.658 185 119.978 185C114.138 185 110.298 181.16 110.298 175.48C110.298 163.16 110.298 150.84 110.298 138.52ZM172.222 175.96C172.222 166.6 172.222 155 172.222 148.2H170.622C170.622 156.68 170.622 167.96 170.622 175.96C170.622 181.4 166.782 185 160.942 185C155.182 185 151.662 181.4 151.982 175.96C152.622 167.32 153.582 154.28 154.302 144.04C154.942 135.08 161.822 129 171.582 129C181.102 129 187.822 135 188.542 144.12C189.262 154.28 190.142 167.32 190.782 175.96C191.182 181.4 187.662 185 181.742 185C176.062 185 172.222 181.4 172.222 175.96ZM212.768 175.88C212.768 173.64 212.768 171.24 212.768 169.16H211.168C211.168 171.4 211.168 173.96 211.168 175.88C211.168 181.32 207.408 185 201.488 185C195.808 185 192.128 181.32 192.528 175.88C193.088 167.32 194.128 154.28 194.848 144.04C195.488 135.08 202.288 129 212.128 129C221.568 129 228.448 135.08 229.088 144.04C229.808 154.28 230.688 167.32 231.328 175.88C231.728 181.32 228.208 185 222.288 185C216.608 185 212.768 181.32 212.768 175.88ZM211.168 148.2V163.56H212.768C212.768 158.04 212.768 151.96 212.768 148.2H211.168ZM272.675 184.84C242.515 184.84 272.675 184.84 242.515 184.84C236.835 184.84 232.995 181 232.995 175.16C232.995 170.84 235.235 167.56 238.755 166.68C239.315 159.32 239.875 151.08 240.355 144.04C240.995 135.08 247.875 129 257.635 129C267.155 129 273.875 135 274.595 144.12C275.075 150.92 275.635 159.08 276.115 166.2C279.875 167.48 282.195 170.76 282.195 175.32C282.195 181 278.355 184.84 272.675 184.84ZM256.675 165.64H258.275C258.275 159.32 258.275 152.44 258.275 148.2H256.675V165.64ZM285.377 138.52C285.377 132.84 289.217 129 294.897 129C300.737 129 304.577 132.84 304.577 138.52C304.577 143.96 304.577 149.8 304.577 153.8H306.177C306.177 149.8 306.177 143.96 306.177 138.52C306.177 132.84 310.017 129 315.697 129C321.537 129 325.377 132.84 325.377 138.52C325.377 139.24 325.377 140.36 325.377 141.08C325.377 151.96 320.497 158.6 312.897 158.6C311.857 158.6 305.617 158.6 304.577 158.6C304.577 159.48 304.577 159.72 304.577 160.2C305.137 160.2 308.577 160.2 312.897 160.2C320.657 160.2 325.377 165.96 325.377 175.4C325.377 181.16 321.537 185 315.777 185C310.017 185 306.177 181.16 306.177 175.32C306.177 172.44 306.177 167.88 306.177 165H304.577C304.577 166.92 304.577 171.16 304.577 175.48C304.577 181.16 300.737 185 295.057 185C289.217 185 285.377 181.16 285.377 175.48C285.377 163.16 285.377 150.84 285.377 138.52ZM347.3 175.88C347.3 173.64 347.3 171.24 347.3 169.16H345.7C345.7 171.4 345.7 173.96 345.7 175.88C345.7 181.32 341.94 185 336.02 185C330.34 185 326.66 181.32 327.06 175.88C327.62 167.32 328.66 154.28 329.38 144.04C330.02 135.08 336.82 129 346.66 129C356.1 129 362.98 135.08 363.62 144.04C364.34 154.28 365.22 167.32 365.86 175.88C366.26 181.32 362.74 185 356.82 185C351.14 185 347.3 181.32 347.3 175.88ZM345.7 148.2V163.56H347.3C347.3 158.04 347.3 151.96 347.3 148.2H345.7Z" fill="white"/>
<path d="M55.7563 255.8V254.12C55.7563 242.68 63.4363 235 75.7563 235C87.2763 235 94.9563 242.68 94.9563 255.56C94.9563 264.36 89.1163 270.2 80.3163 270.2H78.1563V271.8H85.5163C91.1963 271.8 95.0363 275.64 95.0363 281.48C95.0363 287.16 91.1963 291 85.5163 291H67.2763C60.3163 291 55.7563 286.44 55.7563 279.32C55.7563 272.36 60.3163 267.8 67.2763 267.8H75.7563V251H74.9563V257.08C74.9563 262.44 71.4363 265.96 65.9162 265.96C59.8363 265.96 55.7563 261.88 55.7563 255.8ZM115.936 235H117.296C127.936 235 134.976 241.56 134.976 251.4V274.6C134.976 284.44 127.936 291 115.936 291C105.296 291 98.2563 284.44 98.2563 274.6V251.4C98.2563 241.56 105.296 235 115.936 235ZM117.456 254.36H115.776V271.8H117.456V254.36ZM155.858 235H157.218C167.858 235 174.898 241.56 174.898 251.4V274.6C174.898 284.44 167.858 291 155.858 291C145.218 291 138.178 284.44 138.178 274.6V251.4C138.178 241.56 145.218 235 155.858 235ZM157.378 254.36H155.698V271.8H157.378V254.36ZM191.713 244.92C191.713 239 195.713 235 201.633 235H214.993C224.993 235 231.713 241.72 231.713 251.72C231.713 262.04 224.993 268.76 214.993 268.76C213.313 268.76 211.873 268.76 210.913 268.76C210.913 273.24 210.913 277.32 210.913 281.48C210.913 287.16 207.073 291 201.393 291C195.553 291 191.713 287.16 191.713 281.48C191.713 269.32 191.713 257.08 191.713 244.92ZM212.513 254.2H210.913V263.16H212.513V254.2ZM234.676 282.6C234.676 277.96 237.796 274.2 241.956 274.2C243.316 274.2 246.356 274.2 246.836 274.2C246.836 273.72 246.836 272.76 246.836 272.6C240.756 272.6 237.556 269.64 236.836 265.88C235.236 257.32 233.876 251.24 233.396 244.52C232.996 238.84 236.596 235 242.276 235C248.196 235 251.956 238.84 251.956 244.52C251.956 252.44 251.956 263.48 251.956 271.8H253.556C253.556 265.08 253.556 253.8 253.556 244.52C253.556 238.84 257.396 235 263.076 235C268.996 235 272.516 238.76 272.116 244.44C271.556 252.84 270.596 265.32 269.876 275.24C269.236 283.64 262.756 291 254.036 291C248.356 291 247.716 291 242.036 291C237.876 291 234.676 287.4 234.676 282.6ZM278.119 281.08C278.119 268.92 278.119 256.68 278.119 244.52C278.119 238.84 281.959 235 287.799 235C288.279 235 288.759 235 289.399 235.08C295.959 235.08 299.959 235.08 306.999 235.08C312.679 235.08 316.519 238.92 316.519 244.76C316.519 250.44 312.679 254.28 306.999 254.28C303.159 254.28 300.279 254.28 297.319 254.2C297.319 255.16 297.319 256.2 297.319 257.24C298.279 257.24 299.719 257.24 301.399 257.24C311.399 257.24 318.119 263.96 318.119 274.28C318.119 284.28 311.399 291 301.399 291H288.039C282.119 291 278.119 287 278.119 281.08ZM297.319 274.84H298.919V262.84H297.319V274.84ZM319.722 284.52C319.722 280.44 322.362 277.88 326.442 277.88C330.442 277.88 333.082 280.44 333.082 284.52C333.082 288.6 330.442 291.16 326.442 291.16C322.362 291.16 319.722 288.6 319.722 284.52Z" fill="white"/>
</svg>
